<svg xmlns="http://www.w3.org/2000/svg" viewBox="0 0 1024 1024"><defs><linearGradient id="a" x1="0" x2="1" y1="0" y2="1"><stop offset="0%" stop-color="#3B26A8"/><stop offset="30%" stop-color="#9C24A0"/><stop offset="70%" stop-color="#E1306C"/><stop offset="100%" stop-color="#FD8D32"/></linearGradient></defs><rect width="1024" height="1024" fill="url(#a)" rx="240"/><path fill="#fff" d="M725.3 320H608l-38.4-51.2a42.7 42.7 0 0 0-34.1-16.8H488.5a42.7 42.7 0 0 0-34.1 16.8L416 320H298.7C263.4 320 234.7 348.7 234.7 384v298.7c0 35.3 28.7 64 64 64h426.6c35.3 0 64-28.7 64-64V384c0-35.3-28.7-64-64-64zM512 661.3c-70.7 0-128-57.3-128-128s57.3-128 128-128 128 57.3 128 128-57.3 128-128 128zm149.3-256a32 32 0 1 1 0-64 32 32 0 0 1 0 64z"/><path fill="#fff" d="M512 448c-47.1 0-85.3 38.2-85.3 85.3 0 47.1 38.2 85.3 85.3 85.3 47.1 0 85.3-38.2 85.3-85.3 0-47.1-38.2-85.3-85.3-85.3z"/></svg>
